<svg viewBox="0 0 100 100" fill="none" xmlns="http://www.w3.org/2000/svg">
<path d="M35.8948 0.0453247C35.5299 0.196136 35.411 0.757491 35.6741 1.13452C36.073 1.72101 38.9159 4.45238 40.5792 5.85996C41.275 6.44645 44.4319 9.337 45.1193 10.0157C46.3159 11.1886 47.3851 12.4789 48.8617 14.5233C49.1418 14.9087 50.4062 17.3803 51.4076 19.4833C51.7386 20.1954 52.2138 21.3601 52.4599 22.0806C52.706 22.7928 53.0115 23.6976 53.1388 24.0914C53.2746 24.4852 53.4698 25.0382 53.5801 25.3231C53.6904 25.6079 53.7753 25.9095 53.7753 25.9933C53.7753 26.0855 53.8771 26.4709 53.9959 26.8647C54.5136 28.5655 54.9464 30.5512 55.0142 31.5482C55.1076 32.8385 54.6663 34.6147 54.0383 35.5196C53.9025 35.7123 53.4103 36.6088 52.9436 37.5053C51.9253 39.4826 51.6113 40.0272 51.2548 40.4964C51.1021 40.6975 50.9748 40.8986 50.9748 40.9488C50.9748 40.9991 50.8899 41.1583 50.7796 41.3007C50.6693 41.4431 50.4571 41.7867 50.3044 42.0632C49.9649 42.658 49.0909 43.9567 48.7429 44.3672L48.4883 44.6688L47.8264 44.4091C47.0966 44.1326 47.1136 44.1578 46.6468 42.8591C46.5365 42.5575 46.4177 42.281 46.3753 42.2307C46.3413 42.1888 46.3074 42.105 46.3074 42.038C46.3074 41.8956 45.6624 40.9153 45.2381 40.4126C45.0769 40.2199 44.661 39.8345 44.3131 39.5496C43.6257 38.9883 43.0487 38.7537 42.3698 38.7537C42.0303 38.7537 41.92 38.7956 41.7078 39.0134C41.4702 39.2396 41.4532 39.2983 41.5042 39.6502C41.5551 40.0104 42.3188 41.6442 43.0996 43.0602C43.4984 43.7807 43.5069 43.9148 43.1505 43.9902C42.7941 44.0656 41.589 44.6018 41.2835 44.8113C40.9865 45.0207 40.8337 44.9537 40.7065 44.5599C40.6471 44.384 40.4349 43.9232 40.2397 43.5294C40.0445 43.1356 39.8324 42.6664 39.773 42.4821C39.4929 41.6023 38.9413 40.6723 38.6273 40.5299C38.2879 40.3791 38.1436 40.4042 37.7957 40.6891C37.3035 41.0829 37.1337 41.5102 37.0319 42.5407C36.8622 44.208 37.1337 45.1632 38.2794 46.9059C38.6952 47.5426 38.7546 47.6851 38.7122 47.9113C38.6019 48.4056 38.3218 48.9586 38.1521 49.0005C38.0587 49.0256 37.3883 48.9502 36.65 48.8413C35.9202 48.724 35.0716 48.5983 34.7661 48.5481C34.0448 48.4391 32.0844 47.9867 31.7535 47.8526C31.6177 47.794 31.3461 47.7186 31.1594 47.6851C30.0223 47.4756 27.7225 46.6964 26.6702 46.1602C25.6943 45.6575 25.1342 45.2302 24.0055 44.1242C22.9533 43.0937 22.5883 42.6245 21.1372 40.4796C20.051 38.8626 19.8133 38.4437 18.4046 35.6955C18.0991 35.0923 17.7597 34.4723 17.6494 34.3131C17.4202 33.9612 16.2237 31.0539 15.7994 29.8223C15.2987 28.3644 14.8574 26.4122 14.7046 25.013C14.467 22.776 14.3991 21.7203 14.3906 20.3044C14.3906 19.5587 14.3567 18.4863 14.3058 17.9333C14.2633 17.3803 14.2209 15.9057 14.2039 14.6657C14.1615 11.7332 13.9494 10.267 13.525 9.97376C13.2874 9.8062 12.7528 9.81457 12.5746 9.98214C12.2267 10.3257 11.7939 11.8757 11.2847 14.5819C10.6652 17.95 10.5888 18.5198 10.5209 20.673C10.4615 22.6168 10.6482 26.1106 10.9537 28.7414C11.081 29.7636 11.1659 30.1155 11.6411 31.5147C12.3624 33.6177 12.5831 34.1204 13.1686 35.0672C13.4317 35.5028 13.8475 36.1815 14.0851 36.5753C15.0611 38.2091 15.3156 38.628 15.8333 39.4491C16.1303 39.9183 16.5461 40.5634 16.7668 40.8818C16.9789 41.2002 17.2929 41.6694 17.4542 41.9291C17.6154 42.1972 17.9379 42.6496 18.167 42.9513C18.3961 43.2445 18.7611 43.7137 18.9732 43.9902C19.1939 44.2667 19.4315 44.5851 19.5163 44.7024C19.5927 44.8197 19.8727 45.1548 20.1273 45.4564C20.3819 45.758 20.8232 46.2943 21.1033 46.6462C21.6039 47.2829 23.1739 48.8581 23.4539 49.0089C23.5388 49.0508 23.734 49.1932 23.8783 49.3189C24.6505 49.9808 26.5344 51.0197 27.9432 51.581C30.0053 52.3854 32.5003 53.1143 33.7987 53.2903C34.0278 53.3238 34.6133 53.4159 35.1055 53.4997C35.5977 53.5835 36.3106 53.6757 36.701 53.7008C37.0828 53.7343 37.4902 53.8013 37.609 53.8516C37.8721 53.9689 37.889 54.2789 37.6429 54.4465C37.4393 54.5889 37.4053 54.5889 34.8934 54.3543C33.8666 54.2538 32.8143 54.1616 32.5597 54.1449C30.7776 54.0276 26.509 53.4662 25.8131 53.2484C25.5331 53.1646 24.9221 52.9886 24.4553 52.8629C22.8599 52.4356 22.1131 52.0754 20.6789 51.0281C20.2801 50.7348 19.72 50.341 19.4315 50.14C17.225 48.6067 15.1289 46.7216 13.5929 44.8699C13.3129 44.5348 12.8971 44.0405 12.6595 43.7807C11.5987 42.5826 11.3865 42.3061 10.9622 41.6107C10.7161 41.2086 10.3851 40.6891 10.2239 40.4629C9.90143 40.0021 9.55349 39.4156 9.24799 38.8039C8.98491 38.2929 8.48422 36.3658 8.34844 35.3604C8.21266 34.3299 8.22964 31.5566 8.40785 28.7833C8.57757 25.9514 8.5012 24.9041 8.08537 24.393C7.87322 24.1249 7.18583 24.016 6.85487 24.192C6.38812 24.4349 5.81955 25.8928 5.53101 27.5266C5.47161 27.9204 5.3528 28.5823 5.28491 29.0012C4.94546 30.9534 4.90303 34.9164 5.19157 36.4999C5.38675 37.5304 5.92987 39.3485 6.35418 40.3456C7.29615 42.5659 8.13629 43.9902 9.74867 46.0848C10.2324 46.7132 10.7755 47.4253 10.9622 47.6683C11.6072 48.5145 12.1418 49.0759 13.2959 50.1316C15.0271 51.7235 15.2732 51.9329 16.5207 52.8043C17.6154 53.5751 18.5913 54.2789 19.703 55.0916C19.9831 55.3011 20.365 55.5608 20.5601 55.6781C20.7553 55.7954 21.0608 55.9881 21.239 56.1054C22.0452 56.6416 22.9617 57.1695 23.3945 57.3454C23.6491 57.446 24.4893 57.6805 25.2615 57.8649C26.0338 58.0408 26.7975 58.2335 26.9588 58.2754C27.8498 58.5184 29.7168 58.6692 34.4691 58.8619C35.4959 58.9038 36.701 58.9541 37.1422 58.9708C37.5835 58.9876 38.0842 59.0127 38.2539 59.0211C38.517 59.0295 38.5679 59.0714 38.7461 59.4149C38.848 59.6327 38.9074 59.8338 38.8649 59.8673C38.7461 59.9679 37.4647 60.1941 36.7179 60.2443C35.9202 60.2946 35.0546 60.4035 33.8326 60.5795C33.3913 60.6465 32.6106 60.7387 32.0929 60.7889C31.5838 60.8392 30.9727 60.9146 30.7351 60.9565C30.506 60.9984 29.9714 61.0571 29.5471 61.0822C28.2996 61.166 27.7225 61.2917 26.9842 61.6519C26.0253 62.1127 25.0154 63.0846 24.1413 64.4C23.4539 65.4306 22.826 66.4528 22.6138 66.8633C22.5459 66.9974 22.164 67.676 21.7652 68.3714C20.8996 69.8879 20.2801 71.086 19.7709 72.2674C19.5588 72.7533 19.2787 73.3566 19.1514 73.6079C18.8459 74.1861 17.9039 76.9845 17.7936 77.6631C17.4711 79.4896 17.4457 79.808 17.4796 80.8553C17.6069 84.1731 19.8388 89.7951 21.9434 92.1075C22.6053 92.8281 24.014 93.9927 24.4638 94.177C24.939 94.3697 25.3973 94.3446 25.6434 94.0932C26.0083 93.7413 25.8895 93.1632 25.2361 92.0908C25.0918 91.8562 24.8202 91.3618 24.625 90.9932C24.4383 90.6245 24.0989 89.9962 23.8783 89.6024C23.4624 88.8483 22.4611 86.6951 22.198 85.9661C21.9943 85.3796 21.6294 83.8045 21.4427 82.6566C21.3154 81.8523 21.2984 81.5172 21.3663 80.6877C21.4427 79.6153 21.553 78.9618 21.7397 78.4255C21.8076 78.2412 21.9773 77.6966 22.1301 77.2107C22.2828 76.7247 22.5799 75.8953 22.8005 75.3674C23.0211 74.8396 23.2333 74.3117 23.2672 74.1944C23.3691 73.8593 25.0409 70.5498 25.567 69.6282C26.6363 67.7598 27.5273 66.8633 28.9276 66.2433C29.8441 65.8411 29.7932 65.8495 34.851 65.4809C35.5299 65.4306 36.5821 65.2965 37.1847 65.1876C37.7957 65.0703 38.5934 64.9195 38.9668 64.8441C40.7998 64.5006 40.7913 64.5006 41.012 64.7603C41.2411 65.0201 41.1902 65.2128 40.8592 65.3719C40.7489 65.4222 40.1803 65.6903 39.5778 65.9752C38.9837 66.2517 38.3133 66.6036 38.0842 66.7544C37.8551 66.9052 37.5496 67.1063 37.3968 67.1984C37.2356 67.2906 36.9216 67.4917 36.684 67.6341C36.4464 67.7849 36.1154 67.9693 35.9542 68.0447C35.5977 68.2039 34.1636 69.1422 33.4677 69.6617C32.3305 70.5079 31.0576 72.502 30.7182 73.985C30.5484 74.739 30.5315 76.9007 30.6927 78.0485C30.7436 78.392 30.837 79.0539 30.9049 79.5147C31.0067 80.2437 31.2273 81.1737 31.8808 83.5783C32.0335 84.1648 32.5597 85.6896 33.2386 87.558C33.6968 88.8232 34.6473 90.7921 35.2668 91.7724C36.2512 93.314 39.0432 96.347 41.3429 98.3746C42.6243 99.5057 43.5663 100 44.4234 100C45.8576 100 46.2989 99.1873 45.603 97.8049C45.2551 97.1011 45.0599 96.8497 43.8548 95.5594C41.0629 92.5851 39.5014 90.4905 38.5764 88.5048C37.8551 86.9464 36.998 84.8686 36.8961 84.4161C36.8452 84.2067 36.7519 83.8715 36.6755 83.6621C36.5143 83.218 35.9966 81.3496 35.8269 80.562C35.411 78.6853 35.2413 77.395 35.2413 76.1215C35.2413 75.3088 35.2838 74.739 35.3432 74.5882C35.5044 74.2112 35.9626 73.7001 36.4888 73.3147C36.9895 72.9377 38.9074 71.949 39.8069 71.5971C40.4179 71.3625 40.3415 71.2871 41.0629 72.7701C41.8351 74.3452 41.8351 74.3452 42.3104 75.1998C44.084 78.3166 47.0287 81.4753 51.5688 85.1283C51.9083 85.4048 52.3326 85.7483 52.4938 85.8907C53.02 86.3348 54.5305 87.3402 55.2519 87.7256C56.3805 88.3288 57.5856 88.7729 59.1216 89.1499C59.9957 89.3678 61.6675 89.2672 62.6349 88.9321C63.8908 88.4964 64.3746 88.1948 65.4099 87.181C66.3519 86.2678 66.4282 86.1672 66.8695 85.254C67.8709 83.218 68.0406 82.3299 68.0406 79.0958C68.0406 77.8055 68.0152 76.3561 67.9897 75.8701C67.9727 75.3842 67.9133 73.9682 67.8624 72.7282C67.6757 67.7598 67.4466 66.369 66.3603 63.5036C66.0803 62.7746 65.2996 61.2162 65.045 60.8811C64.8074 60.5711 64.8498 60.3952 65.2147 60.2779C65.3844 60.2192 65.7578 60.0516 66.0379 59.9008C66.3179 59.75 66.8101 59.5322 67.1241 59.4149C67.4381 59.2976 67.803 59.1468 67.9303 59.0714C68.0576 59.0043 68.448 58.8284 68.7959 58.686C69.4578 58.4095 70.4422 58.2838 71.0193 58.3927C71.3163 58.443 72.6401 59.2306 73.0899 59.616C73.3869 59.8757 75.1266 61.7357 75.7207 62.4227C77.3924 64.3917 79.2679 67.433 80.3711 69.9633C80.9142 71.2201 81.7798 74.4877 81.992 76.0796C82.0599 76.6326 82.1532 77.2945 82.1956 77.5458C82.306 78.1742 82.4417 80.4196 82.5012 82.4472C82.5521 84.2067 82.7388 86.5359 82.8915 87.3905C83.0103 88.044 83.3498 89.1332 83.5874 89.6107C83.8335 90.1051 84.5039 90.5659 84.8773 90.4989C85.2507 90.4235 85.7344 90.0716 85.989 89.6945L86.2181 89.351L86.1163 87.6586C86.0654 86.7286 86.0229 84.2318 86.0229 82.1121C86.0314 76.9174 85.8617 74.3955 85.2931 71.3877C85.1828 70.7844 84.9706 69.9717 84.8264 69.5863C84.6821 69.1925 84.4445 68.5641 84.3087 68.1871C84.0117 67.3995 83.197 65.7657 82.2975 64.1822C81.5762 62.9254 81.3301 62.5484 80.2947 61.1325C79.8704 60.5711 79.4207 59.9427 79.2849 59.75C78.7672 59.0379 76.9512 56.8762 76.5523 56.5076C74.9739 55.033 74.4817 54.7062 72.8268 54.0192L71.8934 53.6338H70.875C69.339 53.6338 67.0053 54.1365 65.1298 54.8738C64.8413 54.9911 64.0181 55.2843 63.3223 55.5357C62.6179 55.787 61.5486 56.2143 60.9461 56.4908C60.3351 56.7673 59.6817 57.0187 59.4865 57.0438C59.181 57.0941 59.1131 57.0773 59.0028 56.9181C58.7482 56.5662 58.8331 56.3819 59.3677 56.0216C61.031 54.8989 63.1695 53.0975 65.3505 50.961C66.3858 49.9556 67.3787 49.0089 67.5654 48.8581C68.9996 47.6935 70.4846 47.2913 72.4704 47.5426C73.8622 47.7186 77.4773 48.4056 78.5126 48.6989C79.828 49.0675 82.6539 50.1483 83.808 50.7264C84.733 51.1956 86.1672 52.2848 86.9394 53.1143C87.4911 53.7092 89.3326 56.4992 89.7399 57.3538C89.9436 57.7895 90.2661 58.4681 90.4528 58.8619C90.6394 59.2557 90.9195 59.9427 91.0807 60.3868C91.242 60.8392 91.5814 61.6352 91.8275 62.163C92.1924 62.9171 92.3452 63.1517 92.5489 63.2522C92.9901 63.4784 93.389 63.3946 93.5842 63.026C93.7539 62.7244 94 61.6938 94 61.2917C94 60.8811 93.7454 59.4484 93.5417 58.753C93.4738 58.51 93.355 58.0743 93.2702 57.7811C92.9477 56.5159 90.8686 52.5865 89.7993 51.1956C89.1459 50.3494 88.0257 49.2016 87.3383 48.6821C86.5151 48.0537 84.9876 47.0483 84.3257 46.6964C83.7401 46.3864 80.6681 45.3307 79.531 45.0459C77.9101 44.6521 76.0262 44.2667 74.7362 44.074C74.244 43.9986 73.7094 43.9064 73.5482 43.8645C72.1649 43.5126 69.0844 43.3032 68.0661 43.4959C66.233 43.8394 66.0803 43.9399 61.922 47.6348C60.9546 48.4894 60.6236 48.7659 59.9193 49.2937C59.5374 49.5786 59.181 49.8718 59.1131 49.9473C58.9349 50.1651 57.2801 51.4721 56.7879 51.7905C56.5757 51.9246 56.5587 51.9246 56.3211 51.6983C56.1769 51.5643 56.0665 51.4219 56.0665 51.38C56.0665 51.2878 56.4654 50.7683 56.9491 50.2237C57.1443 50.0143 57.4922 49.5618 57.7383 49.2183C58.1966 48.5732 58.8925 47.7772 59.7496 46.9226C60.5727 46.1016 61.8287 44.7024 62.1851 44.1997C62.3718 43.9483 62.8555 43.2696 63.2629 42.6832C64.731 40.6304 65.3675 39.4575 65.7324 38.1504C66.0633 36.9942 66.564 33.6596 66.598 32.495C66.6064 32.1347 66.6404 31.6153 66.6828 31.3388C66.7168 31.0623 66.7677 29.906 66.7931 28.775C66.8525 26.119 66.7422 25.0047 66.1736 22.1225C65.9191 20.8238 65.7748 20.2625 65.5287 19.6509C65.4693 19.4917 65.2996 18.989 65.1553 18.5449C65.011 18.0925 64.6631 17.263 64.3915 16.7016C64.12 16.1319 63.7975 15.4533 63.6787 15.1935C63.3986 14.5819 62.0069 12.4873 61.4044 11.7751C60.5048 10.7111 59.0367 9.37052 57.8486 8.51592C57.0934 7.97132 56.0326 7.27591 55.6762 7.08321C55.4895 6.98267 55.0397 6.71456 54.6663 6.48834C53.3679 5.69239 52.0016 5.07238 51.5264 5.07238C51.2124 5.07238 50.856 5.31536 50.6778 5.65887C50.4062 6.18671 50.6014 6.76482 51.2124 7.21726C51.3821 7.34294 51.7725 7.66132 52.078 7.92105C52.3835 8.18078 53.2236 8.84267 53.945 9.39565C54.6663 9.94025 55.4046 10.51 55.5913 10.644C55.7695 10.7865 56.1344 11.063 56.3975 11.2557C57.4328 12.0516 59.0282 13.6184 59.5035 14.3222C59.9787 15.0343 61.048 17.1457 61.345 17.9752C61.5656 18.5868 62.1427 21.5109 62.2615 22.6001C62.3124 23.0693 62.4312 23.9741 62.5246 24.5941C62.7622 26.1776 62.8131 27.8785 62.6943 30.5009C62.5924 32.6709 62.533 33.182 62.1766 34.5645C61.7608 36.1731 60.717 38.0331 59.0113 40.2199C58.6124 40.7226 57.8826 41.7029 57.3904 42.3983C56.8982 43.0853 56.3296 43.8561 56.1344 44.0991C55.9308 44.3337 55.5998 44.7526 55.3876 45.0207C54.4626 46.1853 54.2335 46.4534 53.6734 47.0316C53.0539 47.6516 52.9266 47.6935 52.7993 47.2997C52.7569 47.1572 53.6989 45.6826 54.5814 44.5348C54.7342 44.3253 55.0652 43.8394 55.3113 43.4456C55.5574 43.0518 55.8714 42.5407 56.0241 42.3145C56.9321 40.9153 58.4766 37.2623 58.6888 36.0055C58.7397 35.7374 58.8585 35.0588 58.9603 34.4807C59.2574 32.7715 59.1046 30.9366 58.4427 28.2387C58.2051 27.2668 57.9165 26.0268 57.7977 25.4739C57.5516 24.3344 57.2886 23.4295 56.8303 22.1644C56.6521 21.6784 56.4484 21.0919 56.3805 20.8657C56.3126 20.6311 56.1429 20.1619 56.0071 19.8184C55.8629 19.4749 55.6253 18.8465 55.4725 18.436C55.3197 18.0171 55.0906 17.4557 54.9548 17.1792C54.8275 16.9027 54.6493 16.467 54.556 16.2157C54.2165 15.2941 53.945 14.6154 53.7413 14.2216C53.3509 13.4592 52.095 11.75 51.2209 10.7948C50.1601 9.62186 47.5803 7.10834 46.8165 6.48834C46.511 6.24537 45.9764 5.79293 45.62 5.4913C44.9326 4.91319 43.473 3.79048 43.0487 3.53075C42.9044 3.43859 42.3273 3.08669 41.7672 2.7348C41.2071 2.39128 40.5961 2.02264 40.4094 1.9221C40.2227 1.82155 39.756 1.55344 39.3826 1.32722C38.5 0.799377 36.8622 0.0620795 36.4209 0.0118089C36.2342 -0.0133264 35.9966 0.00343251 35.8948 0.0453247Z" fill="black"/>
</svg>
